<?xml version="1.0" encoding="utf-8"?>
<!-- Generator: Adobe Illustrator 28.0.0, SVG Export Plug-In . SVG Version: 6.00 Build 0)  -->
<svg version="1.1" id="Layer_1" xmlns="http://www.w3.org/2000/svg" xmlns:xlink="http://www.w3.org/1999/xlink" x="0px" y="0px"
	 viewBox="0 0 32 32" style="enable-background:new 0 0 32 32;" xml:space="preserve">
<style type="text/css">
	.st0{fill:none;stroke:#27004A;stroke-width:2;stroke-linejoin:round;stroke-miterlimit:10;}
</style>
<path class="st0" d="M16,20.5V15c0-1.2-1-2.2-2.2-2.2c-1.2,0-2.2,1-2.2,2.2v5.5 M11.6,17.2H16 M20.4,20.5v-8.8 M11.8,8.8H5.1V2.2
	 M5.3,8.6C7.7,5.3,11.6,3.1,16,3.1c7.2,0,13.1,5.8,13.1,13c0,2.3-0.6,4.5-1.7,6.3v5h-5c-1.9,1.1-4.1,1.7-6.4,1.7
	c-7.2,0-13.1-5.8-13.1-13"/>
</svg>
