<?xml version="1.0" encoding="utf-8"?>
<!-- Generator: Adobe Illustrator 28.0.0, SVG Export Plug-In . SVG Version: 6.00 Build 0)  -->
<svg version="1.1" id="Layer_1" xmlns="http://www.w3.org/2000/svg" xmlns:xlink="http://www.w3.org/1999/xlink" x="0px" y="0px"
	 viewBox="0 0 32 32" style="enable-background:new 0 0 32 32;" xml:space="preserve">
<style type="text/css">
	.st0{fill-rule:evenodd;clip-rule:evenodd;fill:#26004A;}
</style>
<path class="st0" d="M9,22c-1.7,0-3,1.3-3,3v3H4v-3c0-2.8,2.2-5,5-5h14c2.8,0,5,2.2,5,5v3h-2v-3c0-1.7-1.3-3-3-3H9z"/>
<path class="st0" d="M16,6c-2.8,0-5,2.2-5,5c0,2.8,2.2,5,5,5s5-2.2,5-5C21,8.2,18.8,6,16,6z M9,11c0-3.9,3.1-7,7-7s7,3.1,7,7
	c0,3.9-3.1,7-7,7S9,14.9,9,11z"/>
</svg>
