<?xml version="1.0" encoding="utf-8"?>
<!-- Generator: Adobe Illustrator 28.0.0, SVG Export Plug-In . SVG Version: 6.00 Build 0)  -->
<svg version="1.1" id="Layer_1" xmlns="http://www.w3.org/2000/svg" xmlns:xlink="http://www.w3.org/1999/xlink" x="0px" y="0px"
	 viewBox="0 0 32 32" style="enable-background:new 0 0 32 32;" xml:space="preserve">
<style type="text/css">
	.st0{fill:none;stroke:#27004A;stroke-width:2;stroke-linejoin:round;stroke-miterlimit:10;}
</style>
<path class="st0" d="M17.5,8.9c0-3.3-2.6-5.9-5.8-5.9C8.6,3,6,5.7,6,9c0,3.3,2.6,6,5.8,6"/>
<path class="st0" d="M11.8,13.2v3.4"/>
<path class="st0" d="M15.4,18.1c0.7,0.1,1.4,0,2.1-0.2l5,5.2h2.9v-3l-1.6-1.6l-1.5-0.3l-0.3-1.5l-1.7-1.8c0.5-1.7,0.2-3.5-1.1-4.9
	c-1.8-1.9-4.7-1.9-6.5,0c-0.1,0.2-0.3,0.3-0.4,0.5"/>
<path class="st0" d="M16.3,15.2c0-2.6-2.1-4.8-4.6-4.8c-2.5,0-4.6,2.1-4.6,4.8c0,1.9,1,3.5,2.5,4.3v7.4l2.1,2.1l2.1-2.1v-2.3
	L13,23.3l0.8-1.3v-2.5C15.3,18.7,16.3,17.1,16.3,15.2L16.3,15.2z"/>
</svg>
