<svg width="22" height="22" viewBox="0 0 22 22" fill="none" xmlns="http://www.w3.org/2000/svg">
<path d="M9.64759 15.1708L16.133 8.68533L15.0788 7.65409L9.64759 13.0853L6.89759 10.3353L5.86634 11.3666L9.64759 15.1708ZM10.9997 20.1666C9.7469 20.1666 8.56287 19.926 7.44759 19.4447C6.33231 18.9635 5.35835 18.3065 4.52572 17.4739C3.69308 16.6412 3.03613 15.6673 2.55488 14.552C2.07363 13.4367 1.83301 12.2527 1.83301 10.9999C1.83301 9.73186 2.07363 8.5402 2.55488 7.42492C3.03613 6.30964 3.69308 5.3395 4.52572 4.5145C5.35835 3.6895 6.33231 3.03638 7.44759 2.55513C8.56287 2.07388 9.7469 1.83325 10.9997 1.83325C12.2677 1.83325 13.4594 2.07388 14.5747 2.55513C15.69 3.03638 16.6601 3.6895 17.4851 4.5145C18.3101 5.3395 18.9632 6.30964 19.4445 7.42492C19.9257 8.5402 20.1663 9.73186 20.1663 10.9999C20.1663 12.2527 19.9257 13.4367 19.4445 14.552C18.9632 15.6673 18.3101 16.6412 17.4851 17.4739C16.6601 18.3065 15.69 18.9635 14.5747 19.4447C13.4594 19.926 12.2677 20.1666 10.9997 20.1666ZM10.9997 18.7916C13.1691 18.7916 15.0101 18.0315 16.5226 16.5114C18.0351 14.9912 18.7913 13.1541 18.7913 10.9999C18.7913 8.83047 18.0351 6.9895 16.5226 5.477C15.0101 3.9645 13.1691 3.20825 10.9997 3.20825C8.84551 3.20825 7.00835 3.9645 5.48822 5.477C3.96808 6.9895 3.20801 8.83047 3.20801 10.9999C3.20801 13.1541 3.96808 14.9912 5.48822 16.5114C7.00835 18.0315 8.84551 18.7916 10.9997 18.7916Z" fill="#220047"/>
</svg>
