<svg width="20" height="20" viewBox="0 0 20 20" fill="none" xmlns="http://www.w3.org/2000/svg">
<path d="M16.5625 17.5C14.9514 17.5 13.309 17.1111 11.6354 16.3333C9.96181 15.5556 8.40972 14.4514 6.97917 13.0208C5.54861 11.5903 4.44444 10.0382 3.66667 8.36458C2.88889 6.69097 2.5 5.04861 2.5 3.4375C2.5 3.16964 2.58928 2.94642 2.76785 2.76785C2.94642 2.58928 3.16964 2.5 3.4375 2.5H6.35417C6.54861 2.5 6.71528 2.56944 6.85417 2.70833C6.99306 2.84722 7.09028 3.02083 7.14583 3.22917L7.70685 5.84669C7.73562 6.04612 7.73264 6.22569 7.69792 6.38542C7.66319 6.54514 7.58869 6.68213 7.4744 6.79638L5.39583 8.89583C5.75694 9.50694 6.13889 10.0764 6.54167 10.6042C6.94444 11.1319 7.38889 11.6319 7.875 12.1042C8.38889 12.6319 8.93056 13.1146 9.5 13.5521C10.0694 13.9896 10.6667 14.375 11.2917 14.7083L13.2708 12.6667C13.4097 12.5139 13.5705 12.4097 13.7531 12.3542C13.9358 12.2986 14.1153 12.2847 14.2917 12.3125L16.7708 12.8542C16.9792 12.9097 17.1528 13.0211 17.2917 13.1884C17.4306 13.3557 17.5 13.5429 17.5 13.75V16.5625C17.5 16.8304 17.4107 17.0536 17.2321 17.2321C17.0536 17.4107 16.8304 17.5 16.5625 17.5ZM4.77083 7.75L6.45833 6.04167L5.97917 3.75H3.75C3.77778 4.33333 3.87153 4.94792 4.03125 5.59375C4.19097 6.23958 4.4375 6.95833 4.77083 7.75ZM12.4583 15.3125C13.0278 15.5764 13.6458 15.7917 14.3125 15.9583C14.9792 16.125 15.625 16.2222 16.25 16.25V14.0208L14.1042 13.5833L12.4583 15.3125Z" fill="#220047"/>
</svg>
