<svg width="20" height="20" viewBox="0 0 20 20" fill="none" xmlns="http://www.w3.org/2000/svg">
<path d="M10 13.791C11.4438 12.6263 12.5339 11.5053 13.2703 10.4279C14.0068 9.35053 14.375 8.34657 14.375 7.41602C14.375 6.59657 14.2257 5.90213 13.9271 5.33268C13.6285 4.76324 13.2604 4.29879 12.8227 3.93935C12.3851 3.57989 11.911 3.31947 11.4004 3.1581C10.8898 2.99671 10.423 2.91602 10 2.91602C9.57696 2.91602 9.11015 2.99671 8.59958 3.1581C8.08901 3.31947 7.61491 3.57989 7.17727 3.93935C6.73965 4.29879 6.37153 4.76324 6.07292 5.33268C5.77431 5.90213 5.625 6.59657 5.625 7.41602C5.625 8.34657 5.99323 9.35053 6.72969 10.4279C7.46615 11.5053 8.55625 12.6263 10 13.791ZM10 15.3743C8.09722 13.9438 6.68403 12.5744 5.76042 11.266C4.83681 9.9577 4.375 8.67608 4.375 7.42116C4.375 6.47329 4.54514 5.64171 4.88542 4.92643C5.22569 4.21115 5.66667 3.61046 6.20833 3.12435C6.75 2.63824 7.35403 2.27365 8.02042 2.0306C8.68681 1.78754 9.34653 1.66602 9.99958 1.66602C10.6526 1.66602 11.3125 1.78754 11.9792 2.0306C12.6458 2.27365 13.25 2.63824 13.7917 3.12435C14.3333 3.61046 14.7743 4.21138 15.1146 4.92712C15.4549 5.64286 15.625 6.47565 15.625 7.42552C15.625 8.68307 15.1632 9.96463 14.2396 11.2702C13.316 12.5757 11.9028 13.9438 10 15.3743ZM10.0019 8.74935C10.4034 8.74935 10.7465 8.60637 11.0312 8.32041C11.316 8.03447 11.4583 7.69072 11.4583 7.28916C11.4583 6.88762 11.3154 6.54449 11.0294 6.25977C10.7435 5.97504 10.3997 5.83268 9.99815 5.83268C9.5966 5.83268 9.25347 5.97566 8.96875 6.26162C8.68403 6.54756 8.54167 6.89131 8.54167 7.29287C8.54167 7.69441 8.68465 8.03754 8.9706 8.32227C9.25655 8.60699 9.6003 8.74935 10.0019 8.74935ZM4.375 18.3327V17.0827H15.625V18.3327H4.375Z" fill="#220047"/>
</svg>
